<?xml version="1.0" standalone="no"?>
<!DOCTYPE svg PUBLIC "-//W3C//DTD SVG 20010904//EN"
 "http://www.w3.org/TR/2001/REC-SVG-20010904/DTD/svg10.dtd">
<svg version="1.0" xmlns="http://www.w3.org/2000/svg"
 width="360.000000pt" height="360.000000pt" viewBox="0 0 360.000000 360.000000"
 preserveAspectRatio="xMidYMid meet">

<g transform="translate(0.000000,360.000000) scale(0.100000,-0.100000)"
fill="#000000" stroke="none">
<path d="M1647 3290 c-438 -55 -797 -262 -1056 -610 -194 -260 -291 -577 -290
-955 0 -371 87 -668 274 -936 82 -118 269 -301 384 -377 433 -289 966 -338
1438 -134 300 129 562 370 721 662 155 284 213 643 167 1030 -78 665 -575
1190 -1233 1305 -109 19 -315 26 -405 15z m-110 -1002 l263 -263 265 265 265
265 105 -105 c58 -58 104 -108 103 -112 -2 -3 -120 -127 -263 -274 l-260 -267
263 -257 c144 -141 262 -261 262 -267 0 -12 -198 -198 -211 -198 -8 0 -162
148 -396 378 l-131 130 -262 -254 c-143 -140 -265 -254 -269 -254 -11 0 -211
186 -211 197 0 5 117 124 260 265 143 141 259 260 258 264 -3 7 -122 131 -412
426 l-111 113 105 105 c58 58 107 105 110 105 3 0 123 -118 267 -262z"/>
</g>
</svg>
